<?xml version="1.0" encoding="UTF-8" standalone="no"?>
<!-- Created by diasvg.py -->

<svg
   xmlns:dc="http://purl.org/dc/elements/1.1/"
   xmlns:cc="http://creativecommons.org/ns#"
   xmlns:rdf="http://www.w3.org/1999/02/22-rdf-syntax-ns#"
   xmlns:svg="http://www.w3.org/2000/svg"
   xmlns="http://www.w3.org/2000/svg"
   xmlns:sodipodi="http://sodipodi.sourceforge.net/DTD/sodipodi-0.dtd"
   xmlns:inkscape="http://www.inkscape.org/namespaces/inkscape"
   width="1359.9073"
   height="589.73328"
   viewBox="1.565 2.4 39.794543 18.785155"
   id="svg3257"
   version="1.1"
   inkscape:version="0.48.2 r9819"
   sodipodi:docname="client_high_level_layout.svg">
  <metadata
     id="metadata3473">
    <rdf:RDF>
      <cc:Work
         rdf:about="">
        <dc:format>image/svg+xml</dc:format>
        <dc:type
           rdf:resource="http://purl.org/dc/dcmitype/StillImage" />
      </cc:Work>
    </rdf:RDF>
  </metadata>
  <defs
     id="defs3471" />
  <sodipodi:namedview
     pagecolor="#ffffff"
     bordercolor="#666666"
     borderopacity="1"
     objecttolerance="10"
     gridtolerance="10"
     guidetolerance="10"
     inkscape:pageopacity="0"
     inkscape:pageshadow="2"
     inkscape:window-width="1222"
     inkscape:window-height="693"
     id="namedview3469"
     showgrid="false"
     fit-margin-top="0"
     fit-margin-left="0"
     fit-margin-right="0"
     fit-margin-bottom="0"
     inkscape:zoom="0.8"
     inkscape:cx="762.51198"
     inkscape:cy="293.06484"
     inkscape:window-x="0"
     inkscape:window-y="26"
     inkscape:window-maximized="0"
     inkscape:current-layer="svg3257" />
  <path
     d="m 2.0504328,12.52575 0,3.795 2.365,0 0,-3.795 -2.365,0"
     id="path3259"
     inkscape:connector-curvature="0"
     style="fill:#b7b79d;stroke:none" />
  <path
     d="m 2.0634328,12.54075 0,3.795 2.365,0 0,-3.795 -2.365,0"
     id="path3261"
     inkscape:connector-curvature="0"
     style="fill:#b7b79d;stroke:none" />
  <path
     d="m 2.0634328,12.54075 0,3.795 2.365,0 0,-3.795 -2.365,0"
     id="path3263"
     inkscape:connector-curvature="0"
     style="fill:none;stroke:#494936;stroke-width:0.001" />
  <path
     d="m 2.2074328,13.54975 0.937,0 0,0.332 -0.937,0 0,-0.332"
     id="path3265"
     inkscape:connector-curvature="0"
     style="fill:#000000;stroke:none" />
  <path
     d="m 2.2074328,13.54975 0.936,0 0,0.331 -0.936,0 0,-0.331"
     id="path3267"
     inkscape:connector-curvature="0"
     style="fill:none;stroke:#ecece7;stroke-width:0.001" />
  <path
     d="m 2.2214328,13.86775 0,-0.304 0.908,0"
     id="path3269"
     inkscape:connector-curvature="0"
     style="fill:none;stroke:#494936;stroke-width:0.001" />
  <path
     d="m 2.0504328,12.52575 0.852,-0.856 2.366,0 -0.853,0.856 -2.365,0"
     id="path3271"
     inkscape:connector-curvature="0"
     style="fill:#c9c9b6;stroke:none" />
  <path
     d="m 2.0634328,12.54075 0.854,-0.858 2.365,0 -0.854,0.858 -2.365,0"
     id="path3273"
     inkscape:connector-curvature="0"
     style="fill:#c9c9b6;stroke:none" />
  <path
     d="m 2.0634328,12.54075 0.854,-0.858 2.365,0 -0.854,0.858 -2.365,0"
     id="path3275"
     inkscape:connector-curvature="0"
     style="fill:none;stroke:#494936;stroke-width:0.001" />
  <path
     d="m 4.4154328,16.32075 0.853,-0.857 0,-3.794 -0.853,0.856 0,3.795"
     id="path3277"
     inkscape:connector-curvature="0"
     style="fill:#7a7a5a;stroke:none" />
  <path
     d="m 4.4284328,16.33575 0.854,-0.858 0,-3.795 -0.854,0.858 0,3.795"
     id="path3279"
     inkscape:connector-curvature="0"
     style="fill:#7a7a5a;stroke:none" />
  <path
     d="m 4.4284328,16.33575 0.854,-0.858 0,-3.795 -0.854,0.858 0,3.795"
     id="path3281"
     inkscape:connector-curvature="0"
     style="fill:none;stroke:#494936;stroke-width:0.001" />
  <path
     d="m 4.4154328,12.95475 -2.337,0"
     id="path3283"
     inkscape:connector-curvature="0"
     style="fill:none;stroke:#ecece7;stroke-width:0.112" />
  <path
     d="m 4.4154328,12.92675 -2.337,0"
     id="path3285"
     inkscape:connector-curvature="0"
     style="fill:none;stroke:#494936;stroke-width:0.112" />
  <path
     d="m 4.3604328,12.98375 0,-0.001"
     id="path3287"
     inkscape:connector-curvature="0"
     style="fill:none;stroke:#ecece7;stroke-width:0.153" />
  <path
     d="m 4.3604328,12.95475 0,0"
     id="path3289"
     inkscape:connector-curvature="0"
     style="fill:none;stroke:#494936;stroke-width:0.153" />
  <path
     d="m 3.3084328,13.54975 0.936,0 0,0.332 -0.936,0 0,-0.332"
     id="path3291"
     inkscape:connector-curvature="0"
     style="fill:#000000;stroke:none" />
  <path
     d="m 3.3084328,13.54975 0.935,0 0,0.331 -0.935,0 0,-0.331"
     id="path3293"
     inkscape:connector-curvature="0"
     style="fill:none;stroke:#ecece7;stroke-width:0.001" />
  <path
     d="m 3.3214328,13.86775 0,-0.304 0.908,0"
     id="path3295"
     inkscape:connector-curvature="0"
     style="fill:none;stroke:#494936;stroke-width:0.001" />
  <line
     x1="15.359432"
     y1="11.91875"
     x2="6.0174332"
     y2="4.7217503"
     id="line3297"
     style="stroke:#000000;stroke-width:0.1" />
  <polygon
     points="7.03,4.877 6.786,4.374 7.335,4.481 7.083,4.603 "
     id="polygon3299"
     style="fill:#000000;stroke:none"
     transform="translate(-1.0655672,0.11875)" />
  <polygon
     points="7.03,4.877 6.786,4.374 7.335,4.481 7.083,4.603 "
     id="polygon3301"
     style="fill:none;stroke:#000000;stroke-width:0.1"
     transform="translate(-1.0655672,0.11875)" />
  <text
     x="4.2042618"
     y="17.783751"
     font-size="0.90"
     font-style="normal"
     font-weight="700"
     id="text3303"
     style="font-size:0.89999998px;font-style:normal;font-weight:700;text-anchor:middle;fill:#000000;font-family:sans">Twitter for traffic</text>
  <text
     x="4.2042618"
     y="18.678749"
     font-size="0.90"
     font-style="normal"
     font-weight="700"
     id="text3305"
     style="font-size:0.89999998px;font-style:normal;font-weight:700;text-anchor:middle;fill:#000000;font-family:sans">Server</text>
  <text
     x="-0.05264014"
     y="19.77319"
     font-size="0.80"
     font-style="normal"
     font-weight="400"
     id="text3307"
     style="font-size:0.80000001px;font-style:normal;font-weight:400;text-anchor:start;fill:#000000;font-family:sans">HTTP REST Interface</text>
  <rect
     x="12.034433"
     y="11.91875"
     width="6.6500001"
     height="2.3499999"
     id="rect3309"
     style="fill:#ffffff;stroke:none" />
  <rect
     x="12.034433"
     y="11.91875"
     width="6.6500001"
     height="2.3499999"
     id="rect3311"
     style="fill:none;stroke:#000000;stroke-width:0.1" />
  <text
     x="13.540895"
     y="13.29375"
     font-size="0.80"
     font-style="normal"
     font-weight="400"
     id="text3313"
     style="font-size:0.80000001px;font-style:normal;font-weight:400;text-anchor:start;fill:#000000;font-family:sans">DataMgr</text>
  <path
     d="m 17.505433,19.44675 -0.003,-0.039 -0.008,-0.038 -0.015,-0.038 -0.02,-0.037 -0.024,-0.037 -0.031,-0.037 -0.036,-0.036 -0.042,-0.035 -0.046,-0.035 -0.052,-0.033 -0.057,-0.033 -0.06,-0.033 -0.067,-0.031 -0.071,-0.029 -0.074,-0.028 -0.08,-0.027 -0.082,-0.026 -0.087,-0.024 -0.089,-0.022 -0.094,-0.021 -0.096,-0.02 -0.099,-0.017 -0.102,-0.017 -0.103,-0.014 -0.105,-0.012 -0.108,-0.01 -0.108,-0.009 -0.11,-0.006 -0.111,-0.006 -0.111,-0.003 -0.112,0 0,0 -0.112,0 -0.111,0.003 -0.111,0.006 -0.11,0.006 -0.108,0.009 -0.108,0.01 -0.105,0.012 -0.103,0.014 -0.102,0.017 -0.099,0.017 -0.096,0.02 -0.093,0.021 -0.09,0.022 -0.086,0.024 -0.083,0.026 -0.08,0.027 -0.074,0.028 -0.071,0.029 -0.066,0.031 -0.061,0.033 -0.057,0.033 -0.052,0.033 -0.046,0.035 -0.042,0.035 -0.036,0.036 -0.031,0.037 -0.024,0.037 -0.02,0.037 -0.015,0.038 -0.007,0.038 -0.004,0.039 0,0 0.004,0.038 0.007,0.038 0.015,0.038 0.02,0.037 0.024,0.038 0.031,0.036 0.036,0.036 0.042,0.036 0.046,0.034 0.052,0.034 0.057,0.033 0.061,0.032 0.066,0.031 0.071,0.03 0.074,0.028 0.08,0.027 0.083,0.025 0.086,0.024 0.09,0.023 0.093,0.021 0.096,0.019 0.099,0.018 0.102,0.016 0.103,0.015 0.105,0.012 0.108,0.01 0.108,0.008 0.11,0.007 0.111,0.005 0.111,0.003 0.112,0.001 0,0 0.112,-0.001 0.111,-0.003 0.111,-0.005 0.11,-0.007 0.108,-0.008 0.108,-0.01 0.105,-0.012 0.103,-0.015 0.102,-0.016 0.099,-0.018 0.096,-0.019 0.094,-0.021 0.089,-0.023 0.087,-0.024 0.082,-0.025 0.08,-0.027 0.074,-0.028 0.071,-0.03 0.067,-0.031 0.06,-0.032 0.057,-0.033 0.052,-0.034 0.046,-0.034 0.042,-0.036 0.036,-0.036 0.031,-0.036 0.024,-0.038 0.02,-0.037 0.015,-0.038 0.008,-0.038 0.003,-0.038"
     id="path3315"
     inkscape:connector-curvature="0"
     style="fill:#a5a585;stroke:none" />
  <path
     d="m 17.479433,19.43475 -0.003,-0.039 -0.008,-0.036 -0.013,-0.038 -0.02,-0.036 -0.026,-0.038 -0.031,-0.035 -0.034,-0.036 -0.042,-0.034 -0.047,-0.034 -0.051,-0.034 -0.056,-0.032 -0.061,-0.032 -0.066,-0.03 -0.069,-0.03 -0.075,-0.027 -0.079,-0.026 -0.083,-0.026 -0.085,-0.023 -0.089,-0.022 -0.093,-0.021 -0.096,-0.019 -0.098,-0.017 -0.101,-0.016 -0.102,-0.014 -0.105,-0.012 -0.108,-0.01 -0.107,-0.009 -0.11,-0.006 -0.109,-0.005 -0.112,-0.003 -0.111,-10e-4 0,0 -0.111,10e-4 -0.11,0.003 -0.111,0.005 -0.108,0.006 -0.109,0.009 -0.107,0.01 -0.105,0.012 -0.103,0.014 -0.1,0.016 -0.098,0.017 -0.096,0.019 -0.093,0.021 -0.089,0.022 -0.086,0.023 -0.083,0.026 -0.078,0.026 -0.075,0.027 -0.069,0.03 -0.066,0.03 -0.062,0.032 -0.055,0.032 -0.051,0.034 -0.048,0.034 -0.041,0.034 -0.035,0.036 -0.031,0.035 -0.025,0.038 -0.02,0.036 -0.014,0.038 -0.007,0.036 -0.004,0.039 0,0 0.004,0.037 0.007,0.037 0.014,0.038 0.02,0.036 0.025,0.037 0.031,0.036 0.035,0.036 0.041,0.034 0.048,0.034 0.051,0.034 0.055,0.032 0.062,0.031 0.066,0.031 0.069,0.029 0.075,0.028 0.078,0.026 0.083,0.025 0.086,0.024 0.089,0.022 0.093,0.021 0.096,0.019 0.098,0.017 0.1,0.015 0.103,0.014 0.105,0.012 0.107,0.011 0.109,0.009 0.108,0.006 0.111,0.004 0.11,0.003 0.111,0.002 0,0 0.111,-0.002 0.112,-0.003 0.109,-0.004 0.11,-0.006 0.107,-0.009 0.108,-0.011 0.105,-0.012 0.102,-0.014 0.101,-0.015 0.098,-0.017 0.096,-0.019 0.093,-0.021 0.089,-0.022 0.085,-0.024 0.083,-0.025 0.079,-0.026 0.075,-0.028 0.069,-0.029 0.066,-0.031 0.061,-0.031 0.056,-0.032 0.051,-0.034 0.047,-0.034 0.042,-0.034 0.034,-0.036 0.031,-0.036 0.026,-0.037 0.02,-0.036 0.013,-0.038 0.008,-0.037 0.003,-0.037"
     id="path3317"
     inkscape:connector-curvature="0"
     style="fill:none;stroke:#494936;stroke-width:0.001" />
  <path
     d="m 13.099433,17.87375 0,1.586 4.38,0 0,-1.586 -4.38,0"
     id="path3319"
     inkscape:connector-curvature="0"
     style="fill:#a5a585;stroke:none" />
  <path
     d="m 17.505433,17.85975 -0.003,-0.039 -0.008,-0.038 -0.015,-0.037 -0.02,-0.037 -0.024,-0.038 -0.031,-0.037 -0.036,-0.036 -0.042,-0.035 -0.046,-0.034 -0.052,-0.035 -0.057,-0.032 -0.06,-0.032 -0.067,-0.031 -0.071,-0.029 -0.074,-0.029 -0.08,-0.027 -0.082,-0.026 -0.087,-0.023 -0.089,-0.023 -0.094,-0.021 -0.096,-0.019 -0.099,-0.018 -0.102,-0.016 -0.103,-0.014 -0.105,-0.012 -0.108,-0.011 -0.108,-0.008 -0.11,-0.007 -0.111,-0.005 -0.111,-0.003 -0.112,-10e-4 0,0 -0.112,10e-4 -0.111,0.003 -0.111,0.005 -0.11,0.007 -0.108,0.008 -0.108,0.011 -0.105,0.012 -0.103,0.014 -0.102,0.016 -0.099,0.018 -0.096,0.019 -0.093,0.021 -0.09,0.023 -0.086,0.023 -0.083,0.026 -0.08,0.027 -0.074,0.029 -0.071,0.029 -0.066,0.031 -0.061,0.032 -0.057,0.032 -0.052,0.035 -0.046,0.034 -0.042,0.035 -0.036,0.036 -0.031,0.037 -0.024,0.038 -0.02,0.037 -0.015,0.037 -0.007,0.038 -0.004,0.039 0,0 0.004,0.038 0.007,0.039 0.015,0.037 0.02,0.038 0.024,0.037 0.031,0.037 0.036,0.036 0.042,0.035 0.046,0.035 0.052,0.034 0.057,0.033 0.061,0.032 0.066,0.03 0.071,0.03 0.074,0.029 0.08,0.026 0.083,0.026 0.086,0.024 0.09,0.022 0.093,0.021 0.096,0.02 0.099,0.017 0.102,0.017 0.103,0.014 0.105,0.012 0.108,0.011 0.108,0.007 0.11,0.008 0.111,0.004 0.111,0.003 0.112,0.002 0,0 0.112,-0.002 0.111,-0.003 0.111,-0.004 0.11,-0.008 0.108,-0.007 0.108,-0.011 0.105,-0.012 0.103,-0.014 0.102,-0.017 0.099,-0.017 0.096,-0.02 0.094,-0.021 0.089,-0.022 0.087,-0.024 0.082,-0.026 0.08,-0.026 0.074,-0.029 0.071,-0.03 0.067,-0.03 0.06,-0.032 0.057,-0.033 0.052,-0.034 0.046,-0.035 0.042,-0.035 0.036,-0.036 0.031,-0.037 0.024,-0.037 0.02,-0.038 0.015,-0.037 0.008,-0.039 0.003,-0.038"
     id="path3321"
     inkscape:connector-curvature="0"
     style="fill:#c9c9b6;stroke:none" />
  <path
     d="m 17.479433,17.84775 -0.003,-0.038 -0.008,-0.037 -0.013,-0.036 -0.02,-0.038 -0.026,-0.038 -0.031,-0.035 -0.034,-0.034 -0.042,-0.036 -0.047,-0.034 -0.051,-0.034 -0.056,-0.031 -0.061,-0.032 -0.066,-0.031 -0.069,-0.028 -0.075,-0.028 -0.079,-0.026 -0.083,-0.025 -0.085,-0.024 -0.089,-0.023 -0.093,-0.02 -0.096,-0.019 -0.098,-0.017 -0.101,-0.016 -0.102,-0.014 -0.105,-0.012 -0.108,-0.011 -0.107,-0.008 -0.11,-0.007 -0.037,-10e-4 -0.59,0 -0.037,10e-4 -0.108,0.007 -0.109,0.008 -0.107,0.011 -0.105,0.012 -0.103,0.014 -0.1,0.016 -0.098,0.017 -0.096,0.019 -0.093,0.02 -0.089,0.023 -0.086,0.024 -0.083,0.025 -0.078,0.026 -0.075,0.028 -0.069,0.028 -0.066,0.031 -0.062,0.032 -0.055,0.031 -0.051,0.034 -0.048,0.034 -0.041,0.036 -0.035,0.034 -0.031,0.035 -0.025,0.038 -0.02,0.038 -0.014,0.036 -0.007,0.037 -0.004,0.038 0,0 0.004,0.037 0.007,0.038 0.014,0.037 0.02,0.037 0.025,0.037 0.031,0.036 0.035,0.035 0.041,0.035 0.048,0.034 0.051,0.034 0.055,0.032 0.062,0.031 0.066,0.03 0.069,0.03 0.075,0.028 0.078,0.025 0.083,0.025 0.086,0.024 0.089,0.022 0.093,0.021 0.096,0.02 0.098,0.015 0.1,0.017 0.103,0.013 0.105,0.013 0.107,0.011 0.109,0.008 0.108,0.007 0.111,0.004 0.11,0.003 0.111,0.001 0,0 0.111,-0.001 0.112,-0.003 0.109,-0.004 0.11,-0.007 0.107,-0.008 0.108,-0.011 0.105,-0.013 0.102,-0.013 0.101,-0.017 0.098,-0.015 0.096,-0.02 0.093,-0.021 0.089,-0.022 0.085,-0.024 0.083,-0.025 0.079,-0.025 0.075,-0.028 0.069,-0.03 0.066,-0.03 0.061,-0.031 0.056,-0.032 0.051,-0.034 0.047,-0.034 0.042,-0.035 0.034,-0.035 0.031,-0.036 0.026,-0.037 0.02,-0.037 0.013,-0.037 0.008,-0.038 0.003,-0.037"
     id="path3323"
     inkscape:connector-curvature="0"
     style="fill:none;stroke:#494936;stroke-width:0.001" />
  <path
     d="m 13.099433,17.84775 0,1.585"
     id="path3325"
     inkscape:connector-curvature="0"
     style="fill:none;stroke:#000000;stroke-width:0.001" />
  <path
     d="m 17.479433,17.84775 0,1.585"
     id="path3327"
     inkscape:connector-curvature="0"
     style="fill:none;stroke:#000000;stroke-width:0.001" />
  <line
     x1="5.282433"
     y1="13.57475"
     x2="11.548433"
     y2="13.12875"
     id="line3329"
     style="stroke:#000000;stroke-width:0.1" />
  <polygon
     points="12.472,12.769 12.988,12.983 12.507,13.268 12.614,13.01 "
     id="polygon3331"
     style="fill:#000000;stroke:none"
     transform="translate(-1.0655672,0.11875)" />
  <polygon
     points="12.472,12.769 12.988,12.983 12.507,13.268 12.614,13.01 "
     id="polygon3333"
     style="fill:none;stroke:#000000;stroke-width:0.1"
     transform="translate(-1.0655672,0.11875)" />
  <line
     x1="15.348433"
     y1="14.75575"
     x2="15.308434"
     y2="16.62075"
     id="line3335"
     style="stroke:#000000;stroke-width:0.1" />
  <polygon
     points="16.162,14.756 16.423,14.262 16.662,14.767 16.414,14.637 "
     id="polygon3337"
     style="fill:#000000;stroke:none"
     transform="translate(-1.0655672,0.11875)" />
  <polygon
     points="16.162,14.756 16.423,14.262 16.662,14.767 16.414,14.637 "
     id="polygon3339"
     style="fill:none;stroke:#000000;stroke-width:0.1"
     transform="translate(-1.0655672,0.11875)" />
  <polygon
     points="16.627,16.382 16.366,16.877 16.127,16.371 16.374,16.502 "
     id="polygon3341"
     style="fill:#000000;stroke:none"
     transform="translate(-1.0655672,0.11875)" />
  <polygon
     points="16.627,16.382 16.366,16.877 16.127,16.371 16.374,16.502 "
     id="polygon3343"
     style="fill:none;stroke:#000000;stroke-width:0.1"
     transform="translate(-1.0655672,0.11875)" />
  <text
     x="12.25865"
     y="21.018749"
     font-size="0.80"
     font-style="normal"
     font-weight="400"
     id="text3345"
     style="font-size:0.80000001px;font-style:normal;font-weight:400;text-anchor:start;fill:#000000;font-family:sans">Request Cache</text>
  <rect
     x="17.649433"
     y="2.6187501"
     width="5.4000001"
     height="6.3499999"
     id="rect3347"
     style="fill:#ffffff;stroke:none" />
  <rect
     x="17.649433"
     y="2.6187501"
     width="5.4000001"
     height="6.3499999"
     id="rect3349"
     style="fill:none;stroke:#000000;stroke-width:0.1" />
  <text
     x="20.349434"
     y="5.1937499"
     font-size="0.80"
     font-style="normal"
     font-weight="400"
     id="text3351"
     style="font-size:0.80000001px;font-style:normal;font-weight:400;text-anchor:middle;fill:#000000;font-family:sans">Report</text>
  <text
     x="20.349434"
     y="5.9937501"
     font-size="0.80"
     font-style="normal"
     font-weight="400"
     id="text3353"
     style="font-size:0.80000001px;font-style:normal;font-weight:400;text-anchor:middle;fill:#000000;font-family:sans">disruption</text>
  <text
     x="20.349434"
     y="6.7937503"
     font-size="0.80"
     font-style="normal"
     font-weight="400"
     id="text3355"
     style="font-size:0.80000001px;font-style:normal;font-weight:400;text-anchor:middle;fill:#000000;font-family:sans">(screen)</text>
  <rect
     x="37.499432"
     y="2.5687501"
     width="5.4000001"
     height="6.3499999"
     id="rect3357"
     style="fill:#ffffff;stroke:none" />
  <rect
     x="37.499432"
     y="2.5687501"
     width="5.4000001"
     height="6.3499999"
     id="rect3359"
     style="fill:none;stroke:#000000;stroke-width:0.1" />
  <text
     x="40.149433"
     y="5.9534087"
     font-size="0.80"
     font-style="normal"
     font-weight="400"
     id="text3361"
     style="font-size:0.80000001px;font-style:normal;font-weight:400;text-anchor:middle;fill:#000000;font-family:sans">events</text>
  <text
     x="40.149433"
     y="6.7534089"
     font-size="0.80"
     font-style="normal"
     font-weight="400"
     id="text3363"
     style="font-size:0.80000001px;font-style:normal;font-weight:400;text-anchor:middle;fill:#000000;font-family:sans">(screen)</text>
  <rect
     x="37.484432"
     y="9.96875"
     width="5.4000001"
     height="6.3499999"
     id="rect3365"
     style="fill:#ffffff;stroke:none" />
  <rect
     x="37.484432"
     y="9.96875"
     width="5.4000001"
     height="6.3499999"
     id="rect3367"
     style="fill:none;stroke:#000000;stroke-width:0.1" />
  <text
     x="40.134434"
     y="12.84375"
     font-size="0.80"
     font-style="normal"
     font-weight="400"
     id="text3369"
     style="font-size:0.80000001px;font-style:normal;font-weight:400;text-anchor:middle;fill:#000000;font-family:sans" />
  <text
     x="40.134434"
     y="12.84375"
     font-size="0.80"
     font-style="normal"
     font-weight="400"
     style="font-size:0.80000001px;font-style:normal;font-weight:400;text-anchor:middle;fill:#000000;font-family:sans"
     id="text3475" />
  <text
     x="40.134434"
     y="13.353408"
     font-size="0.80"
     font-style="normal"
     font-weight="400"
     style="font-size:0.80000001px;font-style:normal;font-weight:400;text-anchor:middle;fill:#000000;font-family:sans"
     id="text3477">events</text>
  <text
     x="40.134434"
     y="14.153406"
     font-size="0.80"
     font-style="normal"
     font-weight="400"
     id="text3371"
     style="font-size:0.80000001px;font-style:normal;font-weight:400;text-anchor:middle;fill:#000000;font-family:sans">(screen)</text>
  <path
     d="m 2.4004328,3.37575 0,3.795 2.365,0 0,-3.795 -2.365,0"
     id="path3373"
     inkscape:connector-curvature="0"
     style="fill:#b7b79d;stroke:none" />
  <path
     d="m 2.4134328,3.39075 0,3.795 2.365,0 0,-3.795 -2.365,0"
     id="path3375"
     inkscape:connector-curvature="0"
     style="fill:#b7b79d;stroke:none" />
  <path
     d="m 2.4134328,3.39075 0,3.795 2.365,0 0,-3.795 -2.365,0"
     id="path3377"
     inkscape:connector-curvature="0"
     style="fill:none;stroke:#494936;stroke-width:0.001" />
  <path
     d="m 2.5574328,4.39975 0.937,0 0,0.332 -0.937,0 0,-0.332"
     id="path3379"
     inkscape:connector-curvature="0"
     style="fill:#000000;stroke:none" />
  <path
     d="m 2.5574328,4.39975 0.936,0 0,0.331 -0.936,0 0,-0.331"
     id="path3381"
     inkscape:connector-curvature="0"
     style="fill:none;stroke:#ecece7;stroke-width:0.001" />
  <path
     d="m 2.5714328,4.71775 0,-0.304 0.908,0"
     id="path3383"
     inkscape:connector-curvature="0"
     style="fill:none;stroke:#494936;stroke-width:0.001" />
  <path
     d="m 2.4004328,3.37575 0.852,-0.856 2.366,0 -0.853,0.856 -2.365,0"
     id="path3385"
     inkscape:connector-curvature="0"
     style="fill:#c9c9b6;stroke:none" />
  <path
     d="m 2.4134328,3.39075 0.854,-0.858 2.365,0 -0.854,0.858 -2.365,0"
     id="path3387"
     inkscape:connector-curvature="0"
     style="fill:#c9c9b6;stroke:none" />
  <path
     d="m 2.4134328,3.39075 0.854,-0.858 2.365,0 -0.854,0.858 -2.365,0"
     id="path3389"
     inkscape:connector-curvature="0"
     style="fill:none;stroke:#494936;stroke-width:0.001" />
  <path
     d="m 4.7654328,7.17075 0.853,-0.857 0,-3.794 -0.853,0.856 0,3.795"
     id="path3391"
     inkscape:connector-curvature="0"
     style="fill:#7a7a5a;stroke:none" />
  <path
     d="m 4.7784328,7.18575 0.854,-0.858 0,-3.795 -0.854,0.858 0,3.795"
     id="path3393"
     inkscape:connector-curvature="0"
     style="fill:#7a7a5a;stroke:none" />
  <path
     d="m 4.7784328,7.18575 0.854,-0.858 0,-3.795 -0.854,0.858 0,3.795"
     id="path3395"
     inkscape:connector-curvature="0"
     style="fill:none;stroke:#494936;stroke-width:0.001" />
  <path
     d="m 4.7654328,3.80475 -2.337,0"
     id="path3397"
     inkscape:connector-curvature="0"
     style="fill:none;stroke:#ecece7;stroke-width:0.112" />
  <path
     d="m 4.7654328,3.77675 -2.337,0"
     id="path3399"
     inkscape:connector-curvature="0"
     style="fill:none;stroke:#494936;stroke-width:0.112" />
  <path
     d="m 4.7104328,3.83375 0,-0.001"
     id="path3401"
     inkscape:connector-curvature="0"
     style="fill:none;stroke:#ecece7;stroke-width:0.153" />
  <path
     d="m 4.7104328,3.80475 0,0"
     id="path3403"
     inkscape:connector-curvature="0"
     style="fill:none;stroke:#494936;stroke-width:0.153" />
  <path
     d="m 3.6584328,4.39975 0.936,0 0,0.332 -0.936,0 0,-0.332"
     id="path3405"
     inkscape:connector-curvature="0"
     style="fill:#000000;stroke:none" />
  <path
     d="m 3.6584328,4.39975 0.935,0 0,0.331 -0.935,0 0,-0.331"
     id="path3407"
     inkscape:connector-curvature="0"
     style="fill:none;stroke:#ecece7;stroke-width:0.001" />
  <path
     d="m 3.6714328,4.71775 0,-0.304 0.909,0"
     id="path3409"
     inkscape:connector-curvature="0"
     style="fill:none;stroke:#494936;stroke-width:0.001" />
  <rect
     x="25.249434"
     y="9.96875"
     width="5.4000001"
     height="6.3499999"
     id="rect3411"
     style="fill:#ffffff;stroke:none" />
  <rect
     x="25.249434"
     y="9.96875"
     width="5.4000001"
     height="6.3499999"
     id="rect3413"
     style="fill:none;stroke:#000000;stroke-width:0.1" />
  <text
     x="27.949432"
     y="13.143749"
     font-size="0.80"
     font-style="normal"
     font-weight="400"
     id="text3415"
     style="font-size:0.80000001px;font-style:normal;font-weight:400;text-anchor:middle;fill:#000000;font-family:sans">Event details</text>
  <text
     x="27.949432"
     y="13.943749"
     font-size="0.80"
     font-style="normal"
     font-weight="400"
     id="text3417"
     style="font-size:0.80000001px;font-style:normal;font-weight:400;text-anchor:middle;fill:#000000;font-family:sans">(screen)</text>
  <line
     x1="37.499432"
     y1="5.7437501"
     x2="23.536432"
     y2="5.79175"
     id="line3419"
     style="stroke:#000000;stroke-width:0.1" />
  <polygon
     points="24.728,5.923 24.227,5.675 24.726,5.423 24.602,5.673 "
     id="polygon3421"
     style="fill:#000000;stroke:none"
     transform="translate(-1.0655672,0.11875)" />
  <polygon
     points="24.728,5.923 24.227,5.675 24.726,5.423 24.602,5.673 "
     id="polygon3423"
     style="fill:none;stroke:#000000;stroke-width:0.1"
     transform="translate(-1.0655672,0.11875)" />
  <line
     x1="37.484432"
     y1="13.143749"
     x2="23.483433"
     y2="6.01475"
     id="line3425"
     style="stroke:#000000;stroke-width:0.1" />
  <polygon
     points="24.547,6.175 24.215,5.726 24.774,5.73 24.549,5.896 "
     id="polygon3427"
     style="fill:#000000;stroke:none"
     transform="translate(-1.0655672,0.11875)" />
  <polygon
     points="24.547,6.175 24.215,5.726 24.774,5.73 24.549,5.896 "
     id="polygon3429"
     style="fill:none;stroke:#000000;stroke-width:0.1"
     transform="translate(-1.0655672,0.11875)" />
  <line
     x1="20.349434"
     y1="8.96875"
     x2="15.778433"
     y2="11.67075"
     id="line3431"
     style="stroke:#000000;stroke-width:0.1" />
  <polygon
     points="17.079,11.704 16.521,11.743 16.824,11.273 16.844,11.552 "
     id="polygon3433"
     style="fill:#000000;stroke:none"
     transform="translate(-1.0655672,0.11875)" />
  <polygon
     points="17.079,11.704 16.521,11.743 16.824,11.273 16.844,11.552 "
     id="polygon3435"
     style="fill:none;stroke:#000000;stroke-width:0.1"
     transform="translate(-1.0655672,0.11875)" />
  <line
     x1="37.499432"
     y1="5.7437501"
     x2="28.394432"
     y2="9.7717495"
     id="line3437"
     style="stroke:#000000;stroke-width:0.1" />
  <polygon
     points="29.676,9.831 29.117,9.805 29.473,9.374 29.46,9.653 "
     id="polygon3439"
     style="fill:#000000;stroke:none"
     transform="translate(-1.0655672,0.11875)" />
  <polygon
     points="29.676,9.831 29.117,9.805 29.473,9.374 29.46,9.653 "
     id="polygon3441"
     style="fill:none;stroke:#000000;stroke-width:0.1"
     transform="translate(-1.0655672,0.11875)" />
  <line
     x1="37.484432"
     y1="13.143749"
     x2="31.136433"
     y2="13.143749"
     id="line3443"
     style="stroke:#000000;stroke-width:0.1" />
  <polygon
     points="32.327,13.275 31.827,13.025 32.327,12.775 32.202,13.025 "
     id="polygon3445"
     style="fill:#000000;stroke:none"
     transform="translate(-1.0655672,0.11875)" />
  <polygon
     points="32.327,13.275 31.827,13.025 32.327,12.775 32.202,13.025 "
     id="polygon3447"
     style="fill:none;stroke:#000000;stroke-width:0.1"
     transform="translate(-1.0655672,0.11875)" />
  <line
     x1="25.249434"
     y1="13.143749"
     x2="19.171432"
     y2="13.09775"
     id="line3449"
     style="stroke:#000000;stroke-width:0.1" />
  <polygon
     points="20.36,13.23 19.862,12.976 20.364,12.73 20.237,12.979 "
     id="polygon3451"
     style="fill:#000000;stroke:none"
     transform="translate(-1.0655672,0.11875)" />
  <polygon
     points="20.36,13.23 19.862,12.976 20.364,12.73 20.237,12.979 "
     id="polygon3453"
     style="fill:none;stroke:#000000;stroke-width:0.1"
     transform="translate(-1.0655672,0.11875)" />
  <rect
     x="20.049433"
     y="17.668749"
     width="6.6500001"
     height="2.3499999"
     id="rect3455"
     style="fill:#ffffff;stroke:none" />
  <rect
     x="20.049433"
     y="17.668749"
     width="6.6500001"
     height="2.3499999"
     id="rect3457"
     style="fill:none;stroke:#000000;stroke-width:0.1" />
  <text
     x="20.878481"
     y="19.139309"
     font-size="0.80"
     font-style="normal"
     font-weight="400"
     id="text3459"
     style="font-size:0.80000001px;font-style:normal;font-weight:400;text-anchor:start;fill:#000000;font-family:sans">LocationMgr</text>
  <line
     x1="23.374434"
     y1="17.668749"
     x2="19.032433"
     y2="13.433749"
     id="line3461"
     style="stroke:#000000;stroke-width:0.1" />
  <polygon
     points="20.013,13.581 19.83,13.053 20.363,13.223 20.098,13.315 "
     id="polygon3463"
     style="fill:#000000;stroke:none"
     transform="translate(-1.0655672,0.11875)" />
  <polygon
     points="20.013,13.581 19.83,13.053 20.363,13.223 20.098,13.315 "
     id="polygon3465"
     style="fill:none;stroke:#000000;stroke-width:0.1"
     transform="translate(-1.0655672,0.11875)" />
  <text
     x="3.8994329"
     y="8.2817497"
     font-size="0.90"
     font-style="normal"
     font-weight="700"
     id="text3467"
     style="font-size:0.89999998px;font-style:normal;font-weight:700;text-anchor:middle;fill:#000000;font-family:sans">Twitter.com</text>
  <text
     x="40.120056"
     y="12.568635"
     font-size="0.80"
     font-style="normal"
     font-weight="400"
     style="font-size:0.80000001px;font-style:normal;font-weight:400;text-anchor:middle;fill:#000000;font-family:sans"
     id="text3477-2">Map of</text>
  <text
     x="40.040943"
     y="5.1570702"
     font-size="0.80"
     font-style="normal"
     font-weight="400"
     style="font-size:0.80000001px;font-style:normal;font-weight:400;text-anchor:middle;fill:#000000;font-family:sans"
     id="text3477-2-7">List of</text>
</svg>
