<?xml version="1.0" encoding="UTF-8" standalone="no"?>
<!-- Created by diasvg.py -->

<svg
   xmlns:dc="http://purl.org/dc/elements/1.1/"
   xmlns:cc="http://creativecommons.org/ns#"
   xmlns:rdf="http://www.w3.org/1999/02/22-rdf-syntax-ns#"
   xmlns:svg="http://www.w3.org/2000/svg"
   xmlns="http://www.w3.org/2000/svg"
   xmlns:sodipodi="http://sodipodi.sourceforge.net/DTD/sodipodi-0.dtd"
   xmlns:inkscape="http://www.inkscape.org/namespaces/inkscape"
   width="1273.4641"
   height="733.39752"
   viewBox="4.15 1.12 39.687499 21.711433"
   id="svg3243"
   version="1.1"
   inkscape:version="0.48.2 r9819"
   sodipodi:docname="system_components.pdf">
  <metadata
     id="metadata3461">
    <rdf:RDF>
      <cc:Work
         rdf:about="">
        <dc:format>image/svg+xml</dc:format>
        <dc:type
           rdf:resource="http://purl.org/dc/dcmitype/StillImage" />
        <dc:title></dc:title>
      </cc:Work>
    </rdf:RDF>
  </metadata>
  <defs
     id="defs3459" />
  <sodipodi:namedview
     pagecolor="#ffffff"
     bordercolor="#666666"
     borderopacity="1"
     objecttolerance="10"
     gridtolerance="10"
     guidetolerance="10"
     inkscape:pageopacity="0"
     inkscape:pageshadow="2"
     inkscape:window-width="1366"
     inkscape:window-height="713"
     id="namedview3457"
     showgrid="false"
     inkscape:zoom="0.69"
     inkscape:cx="643.51909"
     inkscape:cy="418.16623"
     inkscape:window-x="0"
     inkscape:window-y="26"
     inkscape:window-maximized="1"
     inkscape:current-layer="svg3243"
     fit-margin-top="0"
     fit-margin-left="0"
     fit-margin-right="0"
     fit-margin-bottom="0" />
  <path
     d="m 27.069,1.4642911 0,3.795 2.365,0 0,-3.795 -2.365,0"
     id="path3245"
     inkscape:connector-curvature="0"
     style="fill:#b7b79d;stroke:none" />
  <path
     d="m 27.082,1.4792911 0,3.795 2.365,0 0,-3.795 -2.365,0"
     id="path3247"
     inkscape:connector-curvature="0"
     style="fill:#b7b79d;stroke:none" />
  <path
     d="m 27.082,1.4792911 0,3.795 2.365,0 0,-3.795 -2.365,0"
     id="path3249"
     inkscape:connector-curvature="0"
     style="fill:none;stroke:#494936;stroke-width:0.001" />
  <path
     d="m 27.226,2.4882911 0.936,0 0,0.332 -0.936,0 0,-0.332"
     id="path3251"
     inkscape:connector-curvature="0"
     style="fill:#000000;stroke:none" />
  <path
     d="m 27.226,2.4882911 0.936,0 0,0.331 -0.936,0 0,-0.331"
     id="path3253"
     inkscape:connector-curvature="0"
     style="fill:none;stroke:#ecece7;stroke-width:0.001" />
  <path
     d="m 27.24,2.8062911 0,-0.304 0.908,0"
     id="path3255"
     inkscape:connector-curvature="0"
     style="fill:none;stroke:#494936;stroke-width:0.001" />
  <path
     d="m 27.069,1.4642911 0.852,-0.856 2.366,0 -0.853,0.856 -2.365,0"
     id="path3257"
     inkscape:connector-curvature="0"
     style="fill:#c9c9b6;stroke:none" />
  <path
     d="m 27.082,1.4792911 0.853,-0.858 2.365,0 -0.853,0.858 -2.365,0"
     id="path3259"
     inkscape:connector-curvature="0"
     style="fill:#c9c9b6;stroke:none" />
  <path
     d="m 27.082,1.4792911 0.853,-0.858 2.365,0 -0.853,0.858 -2.365,0"
     id="path3261"
     inkscape:connector-curvature="0"
     style="fill:none;stroke:#494936;stroke-width:0.001" />
  <path
     d="m 29.434,5.2592911 0.853,-0.857 0,-3.794 -0.853,0.856 0,3.795"
     id="path3263"
     inkscape:connector-curvature="0"
     style="fill:#7a7a5a;stroke:none" />
  <path
     d="m 29.447,5.2742911 0.853,-0.858 0,-3.795 -0.853,0.858 0,3.795"
     id="path3265"
     inkscape:connector-curvature="0"
     style="fill:#7a7a5a;stroke:none" />
  <path
     d="m 29.447,5.2742911 0.853,-0.858 0,-3.795 -0.853,0.858 0,3.795"
     id="path3267"
     inkscape:connector-curvature="0"
     style="fill:none;stroke:#494936;stroke-width:0.001" />
  <path
     d="m 29.434,1.8932911 -2.338,0"
     id="path3269"
     inkscape:connector-curvature="0"
     style="fill:none;stroke:#ecece7;stroke-width:0.112" />
  <path
     d="m 29.434,1.8652911 -2.338,0"
     id="path3271"
     inkscape:connector-curvature="0"
     style="fill:none;stroke:#494936;stroke-width:0.112" />
  <path
     d="m 29.378,1.9222911 0.001,-0.001"
     id="path3273"
     inkscape:connector-curvature="0"
     style="fill:none;stroke:#ecece7;stroke-width:0.153" />
  <path
     d="m 29.378,1.8932911 0.001,0"
     id="path3275"
     inkscape:connector-curvature="0"
     style="fill:none;stroke:#494936;stroke-width:0.153" />
  <path
     d="m 28.327,2.4882911 0.935,0 0,0.332 -0.935,0 0,-0.332"
     id="path3277"
     inkscape:connector-curvature="0"
     style="fill:#000000;stroke:none" />
  <path
     d="m 28.327,2.4882911 0.935,0 0,0.331 -0.935,0 0,-0.331"
     id="path3279"
     inkscape:connector-curvature="0"
     style="fill:none;stroke:#ecece7;stroke-width:0.001" />
  <path
     d="m 28.34,2.8062911 0,-0.304 0.908,0"
     id="path3281"
     inkscape:connector-curvature="0"
     style="fill:none;stroke:#494936;stroke-width:0.001" />
  <text
     x="28.567999"
     y="6.3702912"
     font-size="0.90"
     font-style="normal"
     font-weight="700"
     id="text3283"
     style="font-size:0.89999998px;font-style:normal;font-weight:700;text-anchor:middle;fill:#000000;font-family:sans">Twitter.com</text>
  <rect
     x="4.2000003"
     y="9.7372913"
     width="20.25"
     height="12.7"
     id="rect3287"
     style="fill:none;stroke:#000000;stroke-width:0.1" />
  <text
     x="4.1746597"
     y="23.287291"
     font-size="0.80"
     font-style="normal"
     font-weight="700"
     id="text3289"
     style="font-size:0.80000001px;font-style:normal;font-weight:700;text-anchor:start;fill:#000000;font-family:sans">Server</text>
  <rect
     x="29.789999"
     y="9.7372913"
     width="14.01"
     height="12.7"
     id="rect3293"
     style="fill:none;stroke:#000000;stroke-width:0.1" />
  <text
     x="41.203705"
     y="23.332291"
     font-size="0.80"
     font-style="normal"
     font-weight="700"
     id="text3295"
     style="font-size:0.80000001px;font-style:normal;font-weight:700;text-anchor:start;fill:#000000;font-family:sans">Client</text>
  <line
     x1="14.325"
     y1="9.7372913"
     x2="26.375"
     y2="7.0432916"
     id="line3297"
     style="stroke:#000000;stroke-width:0.1" />
  <polygon
     points="26.298,7.339 26.841,7.474 26.407,7.827 26.475,7.556 "
     id="polygon3299"
     style="fill:#000000;stroke:none"
     transform="translate(-0.1,-0.5127089)" />
  <polygon
     points="26.298,7.339 26.841,7.474 26.407,7.827 26.475,7.556 "
     id="polygon3301"
     style="fill:none;stroke:#000000;stroke-width:0.1"
     transform="translate(-0.1,-0.5127089)" />
  <line
     x1="36.795002"
     y1="9.7372913"
     x2="31.285999"
     y2="7.0032911"
     id="line3303"
     style="stroke:#000000;stroke-width:0.1" />
  <polygon
     points="31.387,7.796 31.05,7.35 31.609,7.348 31.386,7.516 "
     id="polygon3305"
     style="fill:#000000;stroke:none"
     transform="translate(-0.1,-0.5127089)" />
  <polygon
     points="31.387,7.796 31.05,7.35 31.609,7.348 31.386,7.516 "
     id="polygon3307"
     style="fill:none;stroke:#000000;stroke-width:0.1"
     transform="translate(-0.1,-0.5127089)" />
  <text
     x="34.671921"
     y="7.4242702"
     font-size="0.80"
     font-style="normal"
     font-weight="400"
     id="text3309"
     style="font-size:0.73074758px;font-style:normal;font-weight:400;text-anchor:start;fill:#000000;font-family:sans">Report disruptions</text>
  <text
     x="34.671921"
     y="8.1550179"
     font-size="0.80"
     font-style="normal"
     font-weight="400"
     id="text3311"
     style="font-size:0.73074758px;font-style:normal;font-weight:400;text-anchor:start;fill:#000000;font-family:sans">via Twitter</text>
  <text
     x="18.754347"
     y="4.1109395"
     font-size="0.80"
     font-style="normal"
     font-weight="400"
     id="text3313"
     style="font-size:0.73074758px;font-style:normal;font-weight:400;text-anchor:start;fill:#000000;font-family:sans">Retrieve tweets from</text>
  <text
     x="18.754347"
     y="4.8416877"
     font-size="0.80"
     font-style="normal"
     font-weight="400"
     id="text3315"
     style="font-size:0.73074758px;font-style:normal;font-weight:400;text-anchor:start;fill:#000000;font-family:sans">the London area that</text>
  <text
     x="18.754347"
     y="5.5724354"
     font-size="0.80"
     font-style="normal"
     font-weight="400"
     id="text3317"
     style="font-size:0.73074758px;font-style:normal;font-weight:400;text-anchor:start;fill:#000000;font-family:sans">contain a set of</text>
  <text
     x="18.754347"
     y="6.3031826"
     font-size="0.80"
     font-style="normal"
     font-weight="400"
     id="text3319"
     style="font-size:0.73074758px;font-style:normal;font-weight:400;text-anchor:start;fill:#000000;font-family:sans">keywords</text>
  <path
     d="m 11.696,17.477291 -0.003,-0.039 -0.008,-0.038 -0.015,-0.037 -0.02,-0.038 -0.024,-0.037 -0.031,-0.037 -0.036,-0.036 -0.042,-0.035 -0.046,-0.035 -0.052,-0.033 -0.057,-0.033 -0.06,-0.033 -0.067,-0.031 -0.071,-0.029 -0.074,-0.028 -0.08,-0.027 -0.082,-0.026 -0.087,-0.024 -0.089,-0.022 -0.094,-0.021 -0.096,-0.02 -0.099,-0.017 -0.102,-0.017 -0.103,-0.014 -0.105,-0.012 -0.108,-0.01 -0.108,-0.009 -0.11,-0.006 -0.111,-0.006 -0.111,-0.003 -0.112,0 0,0 -0.112,0 -0.111,0.003 -0.111,0.006 -0.11,0.006 -0.108,0.009 -0.108,0.01 -0.105,0.012 -0.103,0.014 -0.102,0.017 -0.099,0.017 -0.096,0.02 -0.093,0.021 -0.09,0.022 -0.086,0.024 -0.083,0.026 -0.08,0.027 -0.074,0.028 -0.071,0.029 -0.066,0.031 -0.061,0.033 -0.057,0.033 -0.052,0.033 -0.046,0.035 -0.042,0.035 -0.036,0.036 -0.031,0.037 -0.024,0.037 -0.02,0.038 -0.015,0.037 -0.007,0.038 -0.004,0.039 0,0 0.004,0.038 0.007,0.038 0.015,0.038 0.02,0.037 0.024,0.038 0.031,0.036 0.036,0.037 0.042,0.035 0.046,0.034 0.052,0.034 0.057,0.033 0.061,0.033 0.066,0.03 0.071,0.03 0.074,0.028 0.08,0.027 0.083,0.025 0.086,0.024 0.09,0.023 0.093,0.021 0.096,0.02 0.099,0.017 0.102,0.016 0.103,0.015 0.105,0.012 0.108,0.01 0.108,0.008 0.11,0.007 0.111,0.005 0.111,0.003 0.112,0.001 0,0 0.112,-0.001 0.111,-0.003 0.111,-0.005 0.11,-0.007 0.108,-0.008 0.108,-0.01 0.105,-0.012 0.103,-0.015 0.102,-0.016 0.099,-0.017 0.096,-0.02 0.094,-0.021 0.089,-0.023 0.087,-0.024 0.082,-0.025 0.08,-0.027 0.074,-0.028 0.071,-0.03 0.067,-0.03 0.06,-0.033 0.057,-0.033 0.052,-0.034 0.046,-0.034 0.042,-0.035 0.036,-0.037 0.031,-0.036 0.024,-0.038 0.02,-0.037 0.015,-0.038 0.008,-0.038 0.003,-0.038"
     id="path3321"
     inkscape:connector-curvature="0"
     style="fill:#a5a585;stroke:none" />
  <path
     d="m 11.67,17.465291 -0.003,-0.039 -0.008,-0.036 -0.013,-0.038 -0.02,-0.036 -0.026,-0.038 -0.031,-0.035 -0.034,-0.036 -0.042,-0.034 -0.047,-0.034 -0.051,-0.034 -0.056,-0.032 -0.061,-0.032 -0.066,-0.03 -0.069,-0.03 -0.075,-0.027 -0.079,-0.026 -0.083,-0.026 -0.085,-0.023 -0.089,-0.022 -0.093,-0.021 -0.096,-0.018 -0.098,-0.018 -0.101,-0.016 -0.102,-0.014 -0.105,-0.012 -0.108,-0.01 -0.107,-0.009 -0.11,-0.006 -0.109,-0.004 -0.112,-0.003 -0.111,-0.002 0,0 -0.111,0.002 -0.11,0.003 -0.111,0.004 -0.108,0.006 -0.109,0.009 -0.107,0.01 -0.105,0.012 -0.103,0.014 -0.1,0.016 -0.098,0.018 -0.096,0.018 -0.093,0.021 -0.089,0.022 -0.086,0.023 -0.083,0.026 -0.078,0.026 -0.075,0.027 -0.069,0.03 -0.066,0.03 -0.062,0.032 -0.055,0.032 -0.051,0.034 -0.048,0.034 -0.041,0.034 -0.035,0.036 -0.031,0.035 -0.025,0.038 -0.02,0.036 -0.014,0.038 -0.007,0.036 -0.004,0.039 0,0 0.004,0.037 0.007,0.037 0.014,0.038 0.02,0.036 0.025,0.037 0.031,0.036 0.035,0.036 0.041,0.034 0.048,0.034 0.051,0.034 0.055,0.032 0.062,0.031 0.066,0.031 0.069,0.029 0.075,0.028 0.078,0.026 0.083,0.025 0.086,0.024 0.089,0.022 0.093,0.021 0.096,0.019 0.098,0.017 0.1,0.016 0.103,0.013 0.105,0.012 0.107,0.011 0.109,0.009 0.108,0.006 0.111,0.005 0.11,0.003 0.111,10e-4 0,0 0.111,-10e-4 0.112,-0.003 0.109,-0.005 0.11,-0.006 0.107,-0.009 0.108,-0.011 0.105,-0.012 0.102,-0.013 0.101,-0.016 0.098,-0.017 0.096,-0.019 0.093,-0.021 0.089,-0.022 0.085,-0.024 0.083,-0.025 0.079,-0.026 0.075,-0.028 0.069,-0.029 0.066,-0.031 0.061,-0.031 0.056,-0.032 0.051,-0.034 0.047,-0.034 0.042,-0.034 0.034,-0.036 0.031,-0.036 0.026,-0.037 0.02,-0.036 0.013,-0.038 0.008,-0.037 0.003,-0.037"
     id="path3323"
     inkscape:connector-curvature="0"
     style="fill:none;stroke:#494936;stroke-width:0.001" />
  <path
     d="m 7.29,15.904291 0,1.586 4.38,0 0,-1.586 -4.38,0"
     id="path3325"
     inkscape:connector-curvature="0"
     style="fill:#a5a585;stroke:none" />
  <path
     d="m 11.696,15.891291 -0.003,-0.039 -0.008,-0.038 -0.015,-0.038 -0.02,-0.037 -0.024,-0.038 -0.031,-0.037 -0.036,-0.036 -0.042,-0.035 -0.046,-0.034 -0.052,-0.035 -0.057,-0.032 -0.06,-0.032 -0.067,-0.031 -0.071,-0.029 -0.074,-0.029 -0.08,-0.027 -0.082,-0.025 -0.087,-0.024 -0.089,-0.023 -0.094,-0.021 -0.096,-0.019 -0.099,-0.018 -0.102,-0.016 -0.103,-0.014 -0.105,-0.012 -0.108,-0.01 -0.108,-0.009 -0.11,-0.006 -0.111,-0.006 -0.111,-0.003 -0.112,-0.001 0,0 -0.112,0.001 -0.111,0.003 -0.111,0.006 -0.11,0.006 -0.108,0.009 -0.108,0.01 -0.105,0.012 -0.103,0.014 -0.102,0.016 -0.099,0.018 -0.096,0.019 -0.093,0.021 -0.09,0.023 -0.086,0.024 -0.083,0.025 -0.08,0.027 -0.074,0.029 -0.071,0.029 -0.066,0.031 -0.061,0.032 -0.057,0.032 -0.052,0.035 -0.046,0.034 -0.042,0.035 -0.036,0.036 -0.031,0.037 -0.024,0.038 -0.02,0.037 -0.015,0.038 -0.007,0.038 -0.004,0.039 0,0 0.004,0.038 0.007,0.038 0.015,0.037 0.02,0.038 0.024,0.037 0.031,0.037 0.036,0.036 0.042,0.035 0.046,0.035 0.052,0.034 0.057,0.033 0.061,0.032 0.066,0.03 0.071,0.03 0.074,0.029 0.08,0.026 0.083,0.026 0.086,0.024 0.09,0.022 0.093,0.021 0.096,0.02 0.099,0.017 0.102,0.017 0.103,0.014 0.105,0.012 0.108,0.011 0.108,0.007 0.11,0.008 0.111,0.005 0.111,0.003 0.112,10e-4 0,0 0.112,-10e-4 0.111,-0.003 0.111,-0.005 0.11,-0.008 0.108,-0.007 0.108,-0.011 0.105,-0.012 0.103,-0.014 0.102,-0.017 0.099,-0.017 0.096,-0.02 0.094,-0.021 0.089,-0.022 0.087,-0.024 0.082,-0.026 0.08,-0.026 0.074,-0.029 0.071,-0.03 0.067,-0.03 0.06,-0.032 0.057,-0.033 0.052,-0.034 0.046,-0.035 0.042,-0.035 0.036,-0.036 0.031,-0.037 0.024,-0.037 0.02,-0.038 0.015,-0.037 0.008,-0.038 0.003,-0.038"
     id="path3327"
     inkscape:connector-curvature="0"
     style="fill:#c9c9b6;stroke:none" />
  <path
     d="m 11.67,15.879291 -0.003,-0.039 -0.008,-0.037 -0.013,-0.036 -0.02,-0.038 -0.026,-0.037 -0.031,-0.036 -0.034,-0.034 -0.042,-0.036 -0.047,-0.033 -0.051,-0.035 -0.056,-0.031 -0.061,-0.032 -0.066,-0.031 -0.069,-0.028 -0.075,-0.028 -0.079,-0.026 -0.083,-0.025 -0.085,-0.024 -0.089,-0.023 -0.093,-0.02 -0.096,-0.019 -0.098,-0.017 -0.101,-0.016 -0.102,-0.014 -0.105,-0.012 -0.108,-0.01 -0.107,-0.009 -0.11,-0.006 -0.037,-0.002 -0.59,0 -0.037,0.002 -0.108,0.006 -0.109,0.009 -0.107,0.01 -0.105,0.012 -0.103,0.014 -0.1,0.016 -0.098,0.017 -0.096,0.019 -0.093,0.02 -0.089,0.023 -0.086,0.024 -0.083,0.025 -0.078,0.026 -0.075,0.028 -0.069,0.028 -0.066,0.031 -0.062,0.032 -0.055,0.031 -0.051,0.035 -0.048,0.033 -0.041,0.036 -0.035,0.034 -0.031,0.036 -0.025,0.037 -0.02,0.038 -0.014,0.036 -0.007,0.037 -0.004,0.039 0,0 0.004,0.036 0.007,0.038 0.014,0.037 0.02,0.037 0.025,0.037 0.031,0.036 0.035,0.035 0.041,0.035 0.048,0.034 0.051,0.034 0.055,0.032 0.062,0.031 0.066,0.03 0.069,0.03 0.075,0.028 0.078,0.026 0.083,0.024 0.086,0.024 0.089,0.022 0.093,0.021 0.096,0.02 0.098,0.015 0.1,0.017 0.103,0.014 0.105,0.012 0.107,0.011 0.109,0.008 0.108,0.007 0.111,0.004 0.11,0.003 0.111,10e-4 0,0 0.111,-10e-4 0.112,-0.003 0.109,-0.004 0.11,-0.007 0.107,-0.008 0.108,-0.011 0.105,-0.012 0.102,-0.014 0.101,-0.017 0.098,-0.015 0.096,-0.02 0.093,-0.021 0.089,-0.022 0.085,-0.024 0.083,-0.024 0.079,-0.026 0.075,-0.028 0.069,-0.03 0.066,-0.03 0.061,-0.031 0.056,-0.032 0.051,-0.034 0.047,-0.034 0.042,-0.035 0.034,-0.035 0.031,-0.036 0.026,-0.037 0.02,-0.037 0.013,-0.037 0.008,-0.038 0.003,-0.036"
     id="path3329"
     inkscape:connector-curvature="0"
     style="fill:none;stroke:#494936;stroke-width:0.001" />
  <path
     d="m 7.29,15.879291 0,1.585"
     id="path3331"
     inkscape:connector-curvature="0"
     style="fill:none;stroke:#000000;stroke-width:0.001" />
  <path
     d="m 11.67,15.879291 0,1.585"
     id="path3333"
     inkscape:connector-curvature="0"
     style="fill:none;stroke:#000000;stroke-width:0.001" />
  <rect
     x="15.049999"
     y="11.637291"
     width="7.8499999"
     height="1.65"
     id="rect3335"
     style="fill:#ffffff;stroke:none" />
  <rect
     x="15.049999"
     y="11.637291"
     width="7.8499999"
     height="1.65"
     id="rect3337"
     style="fill:none;stroke:#000000;stroke-width:0.1" />
  <text
     x="16.23107"
     y="12.731223"
     font-size="0.80"
     font-style="normal"
     font-weight="400"
     id="text3339"
     style="font-size:0.73074758px;font-style:normal;font-weight:400;text-anchor:start;fill:#000000;font-family:sans">Retrieve tweets</text>
  <rect
     x="15.089999"
     y="14.187291"
     width="7.8499999"
     height="1.65"
     id="rect3341"
     style="fill:#ffffff;stroke:none" />
  <rect
     x="15.089999"
     y="14.187291"
     width="7.8499999"
     height="1.65"
     id="rect3343"
     style="fill:none;stroke:#000000;stroke-width:0.1" />
  <text
     x="16.223085"
     y="15.238566"
     font-size="0.80"
     font-style="normal"
     font-weight="400"
     id="text3345"
     style="font-size:0.73074758px;font-style:normal;font-weight:400;text-anchor:start;fill:#000000;font-family:sans">Analyse tweets</text>
  <rect
     x="15.08"
     y="16.637291"
     width="7.8499999"
     height="1.65"
     id="rect3347"
     style="fill:#ffffff;stroke:none" />
  <rect
     x="15.08"
     y="16.637291"
     width="7.8499999"
     height="1.65"
     id="rect3349"
     style="fill:none;stroke:#000000;stroke-width:0.1" />
  <text
     x="16.75626"
     y="17.699085"
     font-size="0.80"
     font-style="normal"
     font-weight="400"
     id="text3351"
     style="font-size:0.73074758px;font-style:normal;font-weight:400;text-anchor:start;fill:#000000;font-family:sans">Store tweets</text>
  <rect
     x="15.12"
     y="19.137291"
     width="7.8499999"
     height="1.65"
     id="rect3353"
     style="fill:#ffffff;stroke:none" />
  <rect
     x="15.12"
     y="19.137291"
     width="7.8499999"
     height="1.65"
     id="rect3355"
     style="fill:none;stroke:#000000;stroke-width:0.1" />
  <text
     x="16.29501"
     y="20.160757"
     font-size="0.80"
     font-style="normal"
     font-weight="400"
     id="text3357"
     style="font-size:0.73074758px;font-style:normal;font-weight:400;text-anchor:start;fill:#000000;font-family:sans">Serve requests</text>
  <text
     x="9.4249992"
     y="19.287291"
     font-size="0.80"
     font-style="normal"
     font-weight="400"
     id="text3359"
     style="font-size:0.80000001px;font-style:normal;font-weight:400;text-anchor:middle;fill:#000000;font-family:sans">Event &amp;</text>
  <text
     x="9.4249992"
     y="20.087292"
     font-size="0.80"
     font-style="normal"
     font-weight="400"
     id="text3361"
     style="font-size:0.80000001px;font-style:normal;font-weight:400;text-anchor:middle;fill:#000000;font-family:sans">Tweet store</text>
  <line
     x1="24.937"
     y1="16.087292"
     x2="29.789999"
     y2="16.087292"
     id="line3363"
     style="stroke:#000000;stroke-width:0.1" />
  <polygon
     points="25.162,16.85 24.662,16.6 25.162,16.35 25.037,16.6 "
     id="polygon3365"
     style="fill:#000000;stroke:none"
     transform="translate(-0.1,-0.5127089)" />
  <polygon
     points="25.162,16.85 24.662,16.6 25.162,16.35 25.037,16.6 "
     id="polygon3367"
     style="fill:none;stroke:#000000;stroke-width:0.1"
     transform="translate(-0.1,-0.5127089)" />
  <path
     d="m 5.579,1.4942911 0,3.795 2.365,0 0,-3.795 -2.365,0"
     id="path3369"
     inkscape:connector-curvature="0"
     style="fill:#b7b79d;stroke:none" />
  <path
     d="m 5.592,1.5092911 0,3.795 2.365,0 0,-3.795 -2.365,0"
     id="path3371"
     inkscape:connector-curvature="0"
     style="fill:#b7b79d;stroke:none" />
  <path
     d="m 5.592,1.5092911 0,3.795 2.365,0 0,-3.795 -2.365,0"
     id="path3373"
     inkscape:connector-curvature="0"
     style="fill:none;stroke:#494936;stroke-width:0.001" />
  <path
     d="m 5.736,2.5182911 0.936,0 0,0.332 -0.936,0 0,-0.332"
     id="path3375"
     inkscape:connector-curvature="0"
     style="fill:#000000;stroke:none" />
  <path
     d="m 5.736,2.5182911 0.936,0 0,0.331 -0.936,0 0,-0.331"
     id="path3377"
     inkscape:connector-curvature="0"
     style="fill:none;stroke:#ecece7;stroke-width:0.001" />
  <path
     d="m 5.75,2.8362911 0,-0.304 0.908,0"
     id="path3379"
     inkscape:connector-curvature="0"
     style="fill:none;stroke:#494936;stroke-width:0.001" />
  <path
     d="m 5.579,1.4942911 0.852,-0.856 2.366,0 -0.853,0.856 -2.365,0"
     id="path3381"
     inkscape:connector-curvature="0"
     style="fill:#c9c9b6;stroke:none" />
  <path
     d="m 5.592,1.5092911 0.853,-0.858 2.365,0 -0.853,0.858 -2.365,0"
     id="path3383"
     inkscape:connector-curvature="0"
     style="fill:#c9c9b6;stroke:none" />
  <path
     d="m 5.592,1.5092911 0.853,-0.858 2.365,0 -0.853,0.858 -2.365,0"
     id="path3385"
     inkscape:connector-curvature="0"
     style="fill:none;stroke:#494936;stroke-width:0.001" />
  <path
     d="m 7.944,5.2892911 0.853,-0.857 0,-3.794 -0.853,0.856 0,3.795"
     id="path3387"
     inkscape:connector-curvature="0"
     style="fill:#7a7a5a;stroke:none" />
  <path
     d="m 7.957,5.3042911 0.853,-0.858 0,-3.795 -0.853,0.858 0,3.795"
     id="path3389"
     inkscape:connector-curvature="0"
     style="fill:#7a7a5a;stroke:none" />
  <path
     d="m 7.957,5.3042911 0.853,-0.858 0,-3.795 -0.853,0.858 0,3.795"
     id="path3391"
     inkscape:connector-curvature="0"
     style="fill:none;stroke:#494936;stroke-width:0.001" />
  <path
     d="m 7.944,1.9232911 -2.338,0"
     id="path3393"
     inkscape:connector-curvature="0"
     style="fill:none;stroke:#ecece7;stroke-width:0.112" />
  <path
     d="m 7.944,1.8952911 -2.338,0"
     id="path3395"
     inkscape:connector-curvature="0"
     style="fill:none;stroke:#494936;stroke-width:0.112" />
  <path
     d="m 7.888,1.9522911 0.001,-0.001"
     id="path3397"
     inkscape:connector-curvature="0"
     style="fill:none;stroke:#ecece7;stroke-width:0.153" />
  <path
     d="m 7.888,1.9232911 0.001,0"
     id="path3399"
     inkscape:connector-curvature="0"
     style="fill:none;stroke:#494936;stroke-width:0.153" />
  <path
     d="m 6.837,2.5182911 0.935,0 0,0.332 -0.935,0 0,-0.332"
     id="path3401"
     inkscape:connector-curvature="0"
     style="fill:#000000;stroke:none" />
  <path
     d="m 6.837,2.5182911 0.935,0 0,0.331 -0.935,0 0,-0.331"
     id="path3403"
     inkscape:connector-curvature="0"
     style="fill:none;stroke:#ecece7;stroke-width:0.001" />
  <path
     d="m 6.85,2.8362911 0,-0.304 0.908,0"
     id="path3405"
     inkscape:connector-curvature="0"
     style="fill:none;stroke:#494936;stroke-width:0.001" />
  <text
     x="7.0780001"
     y="6.3902912"
     font-size="0.90"
     font-style="normal"
     font-weight="700"
     id="text3407"
     style="font-size:0.89999998px;font-style:normal;font-weight:700;text-anchor:middle;fill:#000000;font-family:sans">TfL.gov.uk</text>
  <line
     x1="14.325"
     y1="9.7372913"
     x2="7.947"
     y2="6.9802914"
     id="line3409"
     style="stroke:#000000;stroke-width:0.1" />
  <polygon
     points="8.062,7.772 7.703,7.344 8.261,7.313 8.047,7.493 "
     id="polygon3411"
     style="fill:#000000;stroke:none"
     transform="translate(-0.1,-0.5127089)" />
  <polygon
     points="8.062,7.772 7.703,7.344 8.261,7.313 8.047,7.493 "
     id="polygon3413"
     style="fill:none;stroke:#000000;stroke-width:0.1"
     transform="translate(-0.1,-0.5127089)" />
  <text
     x="9.7765722"
     y="1.9620683"
     font-size="0.80"
     font-style="normal"
     font-weight="400"
     id="text3415"
     style="font-size:0.73074758px;font-style:normal;font-weight:400;text-anchor:start;fill:#000000;font-family:sans">Retrieve traffic event</text>
  <text
     x="9.7765722"
     y="2.6928158"
     font-size="0.80"
     font-style="normal"
     font-weight="400"
     id="text3417"
     style="font-size:0.73074758px;font-style:normal;font-weight:400;text-anchor:start;fill:#000000;font-family:sans">reports and traffic</text>
  <text
     x="9.7765722"
     y="3.423563"
     font-size="0.80"
     font-style="normal"
     font-weight="400"
     id="text3419"
     style="font-size:0.73074758px;font-style:normal;font-weight:400;text-anchor:start;fill:#000000;font-family:sans">camera list from</text>
  <text
     x="9.7765722"
     y="4.1543112"
     font-size="0.80"
     font-style="normal"
     font-weight="400"
     id="text3421"
     style="font-size:0.73074758px;font-style:normal;font-weight:400;text-anchor:start;fill:#000000;font-family:sans">Transport for London</text>
  <rect
     x="5.54"
     y="11.637291"
     width="7.8499999"
     height="1.65"
     id="rect3423"
     style="fill:#ffffff;stroke:none" />
  <rect
     x="5.54"
     y="11.637291"
     width="7.8499999"
     height="1.65"
     id="rect3425"
     style="fill:none;stroke:#000000;stroke-width:0.1" />
  <text
     x="5.9265828"
     y="12.686702"
     font-size="0.80"
     font-style="normal"
     font-weight="400"
     id="text3427"
     style="font-size:0.73074758px;font-style:normal;font-weight:400;text-anchor:start;fill:#000000;font-family:sans">Retrieve TfL events</text>
  <rect
     x="32.215343"
     y="10.092044"
     width="9.1599998"
     height="1.65"
     id="rect3429"
     style="fill:#ffffff;stroke:none" />
  <rect
     x="32.215343"
     y="10.092044"
     width="9.1599998"
     height="1.65"
     id="rect3431"
     style="fill:none;stroke:#000000;stroke-width:0.1" />
  <text
     x="32.991997"
     y="11.195374"
     font-size="0.80"
     font-style="normal"
     font-weight="400"
     id="text3433"
     style="font-size:0.73074758px;font-style:normal;font-weight:400;text-anchor:start;fill:#000000;font-family:sans">Get handset location</text>
  <rect
     x="32.205345"
     y="12.114722"
     width="9.1599998"
     height="1.65"
     id="rect3435"
     style="fill:#ffffff;stroke:none" />
  <rect
     x="32.205345"
     y="12.114722"
     width="9.1599998"
     height="1.65"
     id="rect3437"
     style="fill:none;stroke:#000000;stroke-width:0.1" />
  <text
     x="34.096718"
     y="13.146038"
     font-size="0.80"
     font-style="normal"
     font-weight="400"
     id="text3439"
     style="font-size:0.73074758px;font-style:normal;font-weight:400;text-anchor:start;fill:#000000;font-family:sans">Request events</text>
  <rect
     x="32.215343"
     y="14.180393"
     width="9.1599998"
     height="1.65"
     id="rect3441"
     style="fill:#ffffff;stroke:none" />
  <rect
     x="32.215343"
     y="14.180393"
     width="9.1599998"
     height="1.65"
     id="rect3443"
     style="fill:none;stroke:#000000;stroke-width:0.1" />
  <text
     x="34.197197"
     y="15.214486"
     font-size="0.80"
     font-style="normal"
     font-weight="400"
     id="text3445"
     style="font-size:0.73074758px;font-style:normal;font-weight:400;text-anchor:start;fill:#000000;font-family:sans">Display events</text>
  <rect
     x="32.193016"
     y="16.268063"
     width="9.1599998"
     height="1.65"
     id="rect3447"
     style="fill:#ffffff;stroke:none" />
  <rect
     x="32.193016"
     y="16.268063"
     width="9.1599998"
     height="1.65"
     id="rect3449"
     style="fill:none;stroke:#000000;stroke-width:0.1" />
  <text
     x="33.289658"
     y="17.30303"
     font-size="0.80"
     font-style="normal"
     font-weight="400"
     id="text3451"
     style="font-size:0.73074758px;font-style:normal;font-weight:400;text-anchor:start;fill:#000000;font-family:sans">Report new events</text>
  <text
     x="27.233627"
     y="17.009392"
     font-size="0.80"
     font-style="normal"
     font-weight="400"
     id="text3453"
     style="font-size:0.55532289px;font-style:normal;font-weight:400;text-anchor:middle;fill:#000000;font-family:sans">REST</text>
  <text
     x="27.233627"
     y="17.564716"
     font-size="0.80"
     font-style="normal"
     font-weight="400"
     id="text3455"
     style="font-size:0.55532289px;font-style:normal;font-weight:400;text-anchor:middle;fill:#000000;font-family:sans">based API</text>
  <rect
     style="fill:#ffffff;stroke:none"
     x="32.202152"
     y="18.383799"
     width="9.1599998"
     height="1.65"
     id="rect3447-1" />
  <rect
     style="fill:none;stroke:#000000;stroke-width:0.1"
     x="32.202152"
     y="18.383799"
     width="9.1599998"
     height="1.65"
     id="rect3449-3" />
  <text
     x="37.875591"
     y="1.7170527"
     font-size="0.80"
     font-style="normal"
     font-weight="400"
     id="text3451-5"
     style="font-size:0.73074758px;font-style:normal;font-weight:400;text-anchor:start;fill:#000000;font-family:sans" />
  <flowRoot
     xml:space="preserve"
     id="flowRoot3487"
     style="font-size:13px;font-style:normal;font-weight:normal;line-height:125%;letter-spacing:0px;word-spacing:0px;fill:#000000;fill-opacity:1;stroke:none;font-family:Sans"
     transform="matrix(0.03116499,0,0,0.03116499,4.05,-0.0254178)"><flowRegion
       id="flowRegion3489"><rect
         id="rect3491"
         width="288.57144"
         height="142.85715"
         x="1052.8572"
         y="10.602417" /></flowRegion><flowPara
       id="flowPara3493"></flowPara></flowRoot>  <text
     x="32.401379"
     y="19.436701"
     font-size="0.80"
     font-style="normal"
     font-weight="400"
     id="text3433-0"
     style="font-size:0.73074758px;font-style:normal;font-weight:400;text-anchor:start;fill:#000000;font-family:sans">Store users route home</text>
  <rect
     style="fill:#ffffff;stroke:none"
     x="32.202148"
     y="20.422878"
     width="9.1599998"
     height="1.65"
     id="rect3447-1-2" />
  <rect
     style="fill:none;stroke:#000000;stroke-width:0.1"
     x="32.202148"
     y="20.422878"
     width="9.1599998"
     height="1.65"
     id="rect3449-3-1" />
  <text
     x="32.401375"
     y="21.47578"
     font-size="0.80"
     font-style="normal"
     font-weight="400"
     id="text3433-0-0"
     style="font-size:0.73074758px;font-style:normal;font-weight:400;text-anchor:start;fill:#000000;font-family:sans">Display events for route</text>
</svg>
